<svg xmlns="http://www.w3.org/2000/svg" enable-background="new 0 0 60 60" viewBox="0 0 60 60" id="airbnb">
  <g>
    <path fill="#FFF" d="M50,60H10C4.477,60,0,55.523,0,50V10C0,4.477,4.477,0,10,0h40c5.523,0,10,4.477,10,10v40
		C60,55.523,55.523,60,50,60z"></path>
  </g>
  <g>
    <path fill="#FCC0D5" d="M54.259,46.635c-3.333-9.787-8.912-24.105-14.926-34.094c-0.042-0.067-0.083-0.134-0.125-0.201
		C38.014,10.359,35.654,9.194,33,9.191c-2.654,0.003-5.014,1.168-6.208,3.149c-0.042,0.067-0.083,0.134-0.125,0.201
		c-6.014,9.989-11.593,24.306-14.926,34.094c-0.315,0.888-0.466,1.894-0.417,2.973c0.108,4.12,3.46,7.467,7.593,7.574
		c2.034,0.09,3.784-0.484,5.07-1.546c0.01-0.009,0.02-0.017,0.03-0.026c3.176-2.587,8.955-7.761,8.982-7.826
		c-2.646-2.375-7.868-7.539-7.876-11.48c-0.052-5.895,5.054-7.93,7.876-7.922c2.821-0.008,7.928,2.027,7.876,7.922
		c-0.008,3.941-5.23,9.105-7.876,11.48c0.026,0.065,5.806,5.239,8.982,7.826c0.01,0.009,0.02,0.017,0.03,0.026
		c1.285,1.062,3.036,1.636,5.07,1.546c4.134-0.107,7.486-3.454,7.593-7.574C54.724,48.529,54.574,47.523,54.259,46.635z"></path>
    <g>
      <path fill="#E92160" d="M43.644,55.501c-2.146,0-4.076-0.652-5.587-1.9c-0.087-0.071-5.442-4.559-8.055-6.992
			c-2.609,2.429-7.966,6.917-8.036,6.974c-1.643,1.358-3.746,2.011-6.114,1.907c-4.921-0.127-8.897-4.096-9.026-9.034
			c-0.056-1.221,0.112-2.412,0.502-3.512c2.203-6.469,8.091-22.802,15.055-34.367l0.138-0.222c1.448-2.402,4.248-3.851,7.479-3.854
			c3.234,0.003,6.035,1.452,7.495,3.875l0.068,0.11c0.003,0.005,0.054,0.086,0.057,0.091c6.964,11.567,12.853,27.899,15.061,34.384
			c0.382,1.079,0.551,2.265,0.496,3.51c-0.138,4.931-4.111,8.892-9.054,9.02C43.961,55.498,43.802,55.501,43.644,55.501z
			 M31.097,43.569c0.534,0.512,5.871,5.274,8.832,7.687c1.078,0.891,2.479,1.311,4.087,1.236c3.379-0.088,6.073-2.774,6.161-6.115
			c0-0.009,0-0.019,0.001-0.028c0.039-0.862-0.073-1.671-0.333-2.404c-2.183-6.41-7.982-22.502-14.797-33.82L34.94,9.951
			C34.024,8.43,32.137,7.502,29.999,7.5c-2.135,0.002-4.022,0.931-4.922,2.423l-0.137,0.22
			c-6.801,11.296-12.602,27.39-14.779,33.784c-0.266,0.751-0.377,1.56-0.338,2.421c0.088,3.371,2.782,6.056,6.134,6.143
			c1.641,0.073,3.037-0.344,4.075-1.203c2.995-2.44,8.337-7.208,8.872-7.719c0.279-0.299,0.646-0.445,1.101-0.476
			C30.427,43.094,30.819,43.272,31.097,43.569z M30,44.593h0.01H30z"></path>
      <path fill="#E92160" d="M30,45.343c-0.179,0-0.358-0.064-0.501-0.192c-3.031-2.72-8.116-7.901-8.125-12.036
			c-0.021-2.401,0.781-4.491,2.32-6.039c1.934-1.945,4.592-2.634,6.29-2.634c0.011,0,0.021,0,0.032,0
			c1.698,0,4.355,0.689,6.29,2.634c1.539,1.548,2.342,3.638,2.32,6.044c-0.008,4.13-5.094,9.311-8.125,12.031
			C30.358,45.279,30.179,45.343,30,45.343z M29.982,25.941c-1.408,0-3.615,0.573-5.224,2.192c-1.268,1.275-1.902,2.949-1.884,4.973
			c0.005,2.51,2.594,6.306,7.125,10.473c4.532-4.168,7.121-7.963,7.126-10.468c0.018-2.03-0.616-3.703-1.884-4.979
			c-1.609-1.619-3.816-2.192-5.225-2.192c-0.007,0-0.014,0-0.02,0C29.993,25.941,29.988,25.941,29.982,25.941z"></path>
    </g>
  </g>
</svg>
